<?xml version="1.0" encoding="UTF-8" standalone="no"?>
<svg xmlns:rdf="http://www.w3.org/1999/02/22-rdf-syntax-ns#" xmlns="http://www.w3.org/2000/svg" height="415" width="1024" version="1.1" xmlns:cc="http://creativecommons.org/ns#" xmlns:dc="http://purl.org/dc/elements/1.1/">
 <g transform="translate(.00010180 -85)">
  <rect ry="1.0053" height="415" width="1024" y="85" x="0" fill="#795548"/>
 </g>
 <g transform="translate(-20.833 -848.97)">
  <path fill="#1976d2" d="m322.08 1070 0.9192 2.42h1.544v-2.42z"/>
  <path fill="#d32f2f" d="m324.54 1070v2.42h2.2v-2.42h-2.2z"/>
  <path fill="#1976d2" d="m326.74 1070v2.42h2.2v-2.42h-2.2z"/>
  <path fill="#d32f2f" d="m328.94 1070v2.42h2.2v-2.42h-2.2z"/>
  <path fill="#1976d2" d="m331.14 1070v2.42h2.2v-2.42h-2.2z"/>
  <path fill="#d32f2f" d="m333.34 1070v2.42h2.2v-2.42h-2.2z"/>
  <path fill="#1976d2" d="m335.54 1070v2.42h2.2v-2.42h-2.2z"/>
  <path fill="#d32f2f" d="m337.74 1070v2.42h2.2v-2.42h-2.2z"/>
  <path fill="#1976d2" d="m339.94 1070v2.42h2.2v-2.42h-2.2z"/>
  <path fill="#d32f2f" d="m342.14 1070v2.42h1.54l0.88319-2.42h-1.1032z"/>
 </g>
 <g transform="translate(-20.833 -848.97)">
  <path fill="#fff" d="m398.68 869.8c-22.342 60.764-45.074 122.81-64.966 174.66l-0.0606 0.2201-0.037 0.1226-0.055 0.3299h-0.44l-0.055-0.3299-0.037-0.1225-0.0606-0.22-64.966-174.66-21.965-0.0372 75.973 200.23h22.661l75.973-200.18-21.965-0.0187z"/>
 </g>
 <g transform="translate(-20.833 -848.97)">
  <path fill="#4caf50" d="m245.3 867.73 0.0622 23.848 70.527 186.12 0.15883 0.44 0.19558 0.4399 0.12826 0.2201 0.13442 0.22 0.35441 0.4399 0.42174 0.4224 0.21999 0.1826 0.21999 0.165 0.44 0.2376 0.44 0.1606 0.21999 0.06 0.21999 0.044 0.22 0.031 0.43999 0.017h0.43999 0.44 25.52 0.43999 0.43999l0.44-0.017 0.21999-0.031 0.22-0.044 0.43999-0.1342 0.22-0.086 0.43999-0.2376 0.22-0.165 0.43383-0.3915 0.2079-0.2135 0.35441-0.4399 0.26268-0.4401 0.0979-0.2199 0.0977-0.22 0.15883-0.44 70.572-186.12 0.0182-23.804-77.704 204.64h-20.68z"/>
 </g>
 <g transform="translate(.00010180 -85)">
  <rect ry="2" height="215.16" width="32.999" y="101.65" x="400.51" fill="#2196f3"/>
 </g>
 <g transform="translate(-20.833 -848.97)" fill="#1976d2">
  <path d="m421.34 889.82v2.2898c13.799 2.0488 18.075 2.5889 32.999-0.0898v-2.2449c-15.332 2.2241-20.517 1.784-32.999 0.0449z"/>
  <path d="m421.34 1052.5v2.2897c7.102 2.3164 21.646 3.5619 32.999 0v-2.2448c-10.157 2.5765-23.788 2.2619-32.999-0.045z"/>
 </g>
 <g transform="translate(.00010180 -85)">
  <rect ry="2" height="215.16" width="32.999" y="101.65" x="191.51" fill="#f44336"/>
 </g>
 <g transform="translate(-20.833 -848.97)" fill="#d32f2f">
  <path d="m212.35 889.77v2.288c10.073 2.9021 21.583 2.8703 32.999 0v-2.288c-10.945 2.4907-21.445 2.5608-32.999 0z"/>
  <path d="m212.35 1052.5v2.332c9.5402 2.6704 21.101 3.1614 32.999 0.044v-2.376c-9.3612 2.6227-23.733 2.2529-32.999 0z"/>
 </g>
 <g transform="translate(-20 -148.97)">
  <text style="word-spacing:0px;letter-spacing:0px" font-weight="bold" xml:space="preserve" font-size="145.2px" line-height="100%" y="380.77344" x="454.44574" font-family="Roboto" fill="#ffffff"><tspan x="454.44574" y="380.77344"><tspan font-weight="bold" font-size="145.2px" line-height="100%" y="380.77344" x="454.44574" font-family="Roboto" fill="#ffffff">inerva</tspan></tspan></text>
 </g>
 <g transform="translate(-20 -148.97)">
  <text style="word-spacing:0px;letter-spacing:0px" font-weight="500" xml:space="preserve" font-size="45.062px" line-height="125%" y="429.28497" x="209.12631" font-family="Roboto" font-style="italic" fill="#ffffff"><tspan x="209.12631" y="429.28497"><tspan y="429.28497" x="209.12631">Organize your eBooks with ease!</tspan></tspan></text>
 </g>
 <g transform="translate(.00010180 -85)">
  <rect ry="1.0411" height="112" width="16" y="388" x="-.0000083447" fill="#f44336"/>
  <path d="m-0.0001018 400.32v1.2075c4.8841 1.53 10.465 1.52 16 0v-1.2075c-5.3068 1.3145-10.398 1.3516-16 0z" fill="#d32f2f"/>
  <path d="m-0.0000083907 485.32v1.21c4.6256 1.39 10.231 1.65 16 0.03v-1.2328c-4.5388 1.3608-11.507 1.169-16 0z" fill="#d32f2f"/>
  <g>
   <rect ry=".97836" height="105.25" width="16" y="394.75" x="16" fill="#673ab7"/>
   <path d="m16 406.32v1.2075c4.8842 1.5317 10.465 1.5149 16 0v-1.2075c-5.3069 1.3145-10.398 1.3516-16 0z" fill="#512da8"/>
   <path d="m16 486.33v1.21c4.6256 1.3856 10.231 1.6403 16 0.0228v-1.2328c-4.5389 1.3608-11.507 1.169-16 0z" fill="#512da8"/>
   <rect ry=".88308" height="95" width="16" y="405" x="32" fill="#ffeb3b"/>
   <path d="m32 415.32v1.2075c4.8842 1.5317 10.465 1.5149 16 0v-1.2075c-5.3069 1.3145-10.398 1.3516-16 0z" fill="#fbc02d"/>
   <path d="m32 487.33v1.21c4.6256 1.3856 10.231 1.6403 16 0.0228v-1.2328c-4.5389 1.3608-11.507 1.169-16 0z" fill="#fbc02d"/>
   <rect ry=".97836" height="105.25" width="16" y="394.75" x="48" fill="#ff5722"/>
   <path d="m48 406.33v1.2075c4.8842 1.5317 10.465 1.5149 16 0v-1.2075c-5.3069 1.3145-10.398 1.3516-16 0z" fill="#e64a19"/>
   <path d="m48 486.33v1.21c4.6256 1.3856 10.231 1.6403 16 0.0228v-1.2328c-4.5389 1.3608-11.507 1.169-16 0z" fill="#e64a19"/>
   <rect ry=".97836" height="105.25" width="16" y="394.75" x="64" fill="#3f51b5"/>
   <path d="m64 406.33v1.2075c4.8842 1.5317 10.465 1.5149 16 0v-1.2075c-5.3069 1.3145-10.398 1.3516-16 0z" fill="#303f9f"/>
   <path d="m64 486.33v1.21c4.6256 1.3856 10.231 1.6403 16 0.0228v-1.2328c-4.5389 1.3608-11.507 1.169-16 0z" fill="#303f9f"/>
   <rect ry=".88308" height="95" width="16" y="405" x="80" fill="#e91e63"/>
   <path d="m80 415.32v1.2075c4.8842 1.5317 10.465 1.5149 16 0v-1.2075c-5.3069 1.3145-10.398 1.3516-16 0z" fill="#c2185b"/>
   <path d="m80 487.33v1.21c4.6256 1.3856 10.231 1.6403 16 0.0228v-1.2328c-4.5389 1.3608-11.507 1.169-16 0z" fill="#c2185b"/>
   <rect ry="1.0411" height="112" width="16" y="388" x="96" fill="#8bc34a"/>
   <path d="m96 400.32v1.2075c4.8841 1.5317 10.465 1.5149 16 0v-1.2075c-5.3068 1.3145-10.398 1.3516-16 0z" fill="#689f38"/>
   <path d="m96 485.32v1.21c4.6256 1.3856 10.231 1.6404 16 0.0229v-1.2328c-4.5388 1.3608-11.507 1.169-16 0z" fill="#689f38"/>
   <rect ry=".97836" height="105.25" width="16" y="394.75" x="112" fill="#2196f3"/>
   <path d="m112 406.32v1.2075c4.8842 1.5317 10.465 1.5149 16 0v-1.2075c-5.3069 1.3145-10.398 1.3516-16 0z" fill="#1976d2"/>
   <path d="m112 486.33v1.21c4.6256 1.3856 10.231 1.6403 16 0.0228v-1.2328c-4.5389 1.3608-11.507 1.169-16 0z" fill="#1976d2"/>
   <rect ry=".88308" height="95" width="16" y="405" x="128" fill="#9c27b0"/>
   <path d="m128 415.32v1.2075c4.8842 1.5317 10.465 1.5149 16 0v-1.2075c-5.3069 1.3145-10.398 1.3516-16 0z" fill="#7b1fa2"/>
   <path d="m128 487.33v1.21c4.6256 1.3856 10.231 1.6403 16 0.0228v-1.2328c-4.5389 1.3608-11.507 1.169-16 0z" fill="#7b1fa2"/>
   <rect ry=".88308" height="95" width="16" y="405" x="144" fill="#ff9800"/>
   <path d="m144 415.32v1.2075c4.8842 1.5317 10.465 1.5149 16 0v-1.2075c-5.3069 1.3145-10.398 1.3516-16 0z" fill="#f57c00"/>
   <path d="m144 487.33v1.21c4.6256 1.3856 10.231 1.6403 16 0.0228v-1.2328c-4.5389 1.3608-11.507 1.169-16 0z" fill="#f57c00"/>
   <rect ry=".97836" height="105.25" width="16" y="394.75" x="160" fill="#00bcd4"/>
   <path d="m160 406.33v1.2075c4.8842 1.5317 10.465 1.5149 16 0v-1.2075c-5.3069 1.3145-10.398 1.3516-16 0z" fill="#0097a7"/>
   <path d="m160 486.33v1.21c4.6256 1.3856 10.231 1.6403 16 0.0228v-1.2328c-4.5389 1.3608-11.507 1.169-16 0z" fill="#0097a7"/>
   <rect ry="1.0411" height="112" width="16" y="388" x="176" fill="#ffc107"/>
   <path d="m176 400.32v1.2075c4.8841 1.5317 10.465 1.5149 16 0v-1.2075c-5.3068 1.3145-10.398 1.3516-16 0z" fill="#ffa000"/>
   <path d="m176 485.32v1.21c4.6256 1.3856 10.231 1.6404 16 0.0229v-1.2328c-4.5388 1.3608-11.507 1.169-16 0z" fill="#ffa000"/>
   <rect ry="1.0411" height="112" width="16" y="388" x="192" fill="#009688"/>
   <path d="m192 400.32v1.2075c4.8841 1.5317 10.465 1.5149 16 0v-1.2075c-5.3068 1.3145-10.398 1.3516-16 0z" fill="#00796b"/>
   <path d="m192 485.32v1.21c4.6256 1.3856 10.231 1.6404 16 0.0229v-1.2328c-4.5388 1.3608-11.507 1.169-16 0z" fill="#00796b"/>
   <rect ry=".97836" height="105.25" width="16" y="394.75" x="208" fill="#03a9f4"/>
   <path d="m208 406.33v1.2075c4.8842 1.5317 10.465 1.5149 16 0v-1.2075c-5.3069 1.3145-10.398 1.3516-16 0z" fill="#0288d1"/>
   <path d="m208 486.33v1.21c4.6256 1.3856 10.231 1.6403 16 0.0228v-1.2328c-4.5389 1.3608-11.507 1.169-16 0z" fill="#0288d1"/>
   <rect ry=".88308" height="95" width="16" y="405" x="224" fill="#9e9e9e"/>
   <path d="m224 415.33v1.2075c4.8842 1.5317 10.465 1.5149 16 0v-1.2075c-5.3069 1.3145-10.398 1.3516-16 0z" fill="#616161"/>
   <path d="m224 487.33v1.21c4.6256 1.3856 10.231 1.6403 16 0.0228v-1.2328c-4.5389 1.3608-11.507 1.169-16 0z" fill="#616161"/>
   <rect ry=".97836" height="105.25" width="16" y="394.75" x="240" fill="#4caf50"/>
   <path d="m240 406.33v1.2075c4.8842 1.5317 10.465 1.5149 16 0v-1.2075c-5.3069 1.3145-10.398 1.3516-16 0z" fill="#388e3c"/>
   <path d="m240 486.33v1.21c4.6256 1.3856 10.231 1.6403 16 0.0228v-1.2328c-4.5389 1.3608-11.507 1.169-16 0z" fill="#388e3c"/>
   <rect ry="1.0411" height="112" width="16" y="388" x="256" fill="#f44336"/>
  </g>
  <path d="m256 400.32v1.2075c4.8841 1.5317 10.465 1.5149 16 0v-1.2075c-5.3068 1.3145-10.398 1.3516-16 0z" fill="#d32f2f"/>
  <path d="m256 485.32v1.21c4.6256 1.3856 10.231 1.6404 16 0.0229v-1.2328c-4.5388 1.3608-11.507 1.169-16 0z" fill="#d32f2f"/>
  <g>
   <rect ry=".97836" height="105.25" width="16" y="394.75" x="272" fill="#673ab7"/>
   <path d="m272 406.32v1.2075c4.8842 1.5317 10.465 1.5149 16 0v-1.2075c-5.3069 1.3145-10.398 1.3516-16 0z" fill="#512da8"/>
   <path d="m272 486.33v1.21c4.6256 1.3856 10.231 1.6403 16 0.0228v-1.2328c-4.5389 1.3608-11.507 1.169-16 0z" fill="#512da8"/>
   <rect ry=".88308" height="95" width="16" y="405" x="288" fill="#ffeb3b"/>
   <path d="m288 415.32v1.2075c4.8842 1.5317 10.465 1.5149 16 0v-1.2075c-5.3069 1.3145-10.398 1.3516-16 0z" fill="#fbc02d"/>
   <path d="m288 487.33v1.21c4.6256 1.3856 10.231 1.6403 16 0.0228v-1.2328c-4.5389 1.3608-11.507 1.169-16 0z" fill="#fbc02d"/>
   <rect ry=".97836" height="105.25" width="16" y="394.75" x="304" fill="#ff5722"/>
   <path d="m304 406.32v1.2075c4.8842 1.5317 10.465 1.5149 16 0v-1.2075c-5.3069 1.3145-10.398 1.3516-16 0z" fill="#e64a19"/>
   <path d="m304 486.33v1.21c4.6256 1.3856 10.231 1.6403 16 0.0228v-1.2328c-4.5389 1.3608-11.507 1.169-16 0z" fill="#e64a19"/>
   <rect ry=".97836" height="105.25" width="16" y="394.75" x="320" fill="#3f51b5"/>
   <path d="m320 406.32v1.2075c4.8842 1.5317 10.465 1.5149 16 0v-1.2075c-5.3069 1.3145-10.398 1.3516-16 0z" fill="#303f9f"/>
   <path d="m320 486.33v1.21c4.6256 1.3856 10.231 1.6403 16 0.0228v-1.2328c-4.5389 1.3608-11.507 1.169-16 0z" fill="#303f9f"/>
   <rect ry=".88308" height="95" width="16" y="405" x="336" fill="#e91e63"/>
   <path d="m336 415.32v1.2075c4.8842 1.5317 10.465 1.5149 16 0v-1.2075c-5.3069 1.3145-10.398 1.3516-16 0z" fill="#c2185b"/>
   <path d="m336 487.33v1.21c4.6256 1.3856 10.231 1.6403 16 0.0228v-1.2328c-4.5389 1.3608-11.507 1.169-16 0z" fill="#c2185b"/>
   <rect ry="1.0411" height="112" width="16" y="388" x="352" fill="#8bc34a"/>
   <path d="m352 400.32v1.2075c4.8841 1.5317 10.465 1.5149 16 0v-1.2075c-5.3068 1.3145-10.398 1.3516-16 0z" fill="#689f38"/>
   <path d="m352 485.32v1.21c4.6256 1.3856 10.231 1.6404 16 0.0229v-1.2328c-4.5388 1.3608-11.507 1.169-16 0z" fill="#689f38"/>
   <rect ry=".97836" height="105.25" width="16" y="394.75" x="368" fill="#2196f3"/>
   <path d="m368 406.32v1.2075c4.8842 1.5317 10.465 1.5149 16 0v-1.2075c-5.3069 1.3145-10.398 1.3516-16 0z" fill="#1976d2"/>
   <path d="m368 486.33v1.21c4.6256 1.3856 10.231 1.6403 16 0.0228v-1.2328c-4.5389 1.3608-11.507 1.169-16 0z" fill="#1976d2"/>
   <rect ry=".88308" height="95" width="16" y="405" x="384" fill="#9c27b0"/>
   <path d="m384 415.32v1.2075c4.8842 1.5317 10.465 1.5149 16 0v-1.2075c-5.3069 1.3145-10.398 1.3516-16 0z" fill="#7b1fa2"/>
   <path d="m384 487.33v1.21c4.6256 1.3856 10.231 1.6403 16 0.0228v-1.2328c-4.5389 1.3608-11.507 1.169-16 0z" fill="#7b1fa2"/>
   <rect ry=".88308" height="95" width="16" y="405" x="400" fill="#ff9800"/>
   <path d="m400 415.32v1.2075c4.8842 1.5317 10.465 1.5149 16 0v-1.2075c-5.3069 1.3145-10.398 1.3516-16 0z" fill="#f57c00"/>
   <path d="m400 487.32v1.21c4.6256 1.3856 10.231 1.6403 16 0.0228v-1.2328c-4.5389 1.3608-11.507 1.169-16 0z" fill="#f57c00"/>
   <rect ry=".97836" height="105.25" width="16" y="394.75" x="416" fill="#00bcd4"/>
   <path d="m416 406.32v1.2075c4.8842 1.5317 10.465 1.5149 16 0v-1.2075c-5.3069 1.3145-10.398 1.3516-16 0z" fill="#0097a7"/>
   <path d="m416 486.33v1.21c4.6256 1.3856 10.231 1.6403 16 0.0228v-1.2328c-4.5389 1.3608-11.507 1.169-16 0z" fill="#0097a7"/>
   <rect ry="1.0411" height="112" width="16" y="388" x="432" fill="#ffc107"/>
   <path d="m432 400.32v1.2075c4.8841 1.5317 10.465 1.5149 16 0v-1.2075c-5.3068 1.3145-10.398 1.3516-16 0z" fill="#ffa000"/>
   <path d="m432 485.32v1.21c4.6256 1.3856 10.231 1.6404 16 0.0229v-1.2328c-4.5388 1.3608-11.507 1.169-16 0z" fill="#ffa000"/>
   <rect ry="1.0411" height="112" width="16" y="388" x="448" fill="#009688"/>
   <path d="m448 400.32v1.2075c4.8841 1.5317 10.465 1.5149 16 0v-1.2075c-5.3068 1.3145-10.398 1.3516-16 0z" fill="#00796b"/>
   <path d="m448 485.32v1.21c4.6256 1.3856 10.231 1.6404 16 0.0229v-1.2328c-4.5388 1.3608-11.507 1.169-16 0z" fill="#00796b"/>
   <rect ry=".97836" height="105.25" width="16" y="394.75" x="464" fill="#03a9f4"/>
   <path d="m464 406.32v1.2075c4.8842 1.5317 10.465 1.5149 16 0v-1.2075c-5.3069 1.3145-10.398 1.3516-16 0z" fill="#0288d1"/>
   <path d="m464 486.33v1.21c4.6256 1.3856 10.231 1.6403 16 0.0228v-1.2328c-4.5389 1.3608-11.507 1.169-16 0z" fill="#0288d1"/>
   <rect ry=".88308" height="95" width="16" y="405" x="480" fill="#9e9e9e"/>
   <path d="m480 415.32v1.2075c4.8842 1.5317 10.465 1.5149 16 0v-1.2075c-5.3069 1.3145-10.398 1.3516-16 0z" fill="#616161"/>
   <path d="m480 487.33v1.21c4.6256 1.3856 10.231 1.6403 16 0.0228v-1.2328c-4.5389 1.3608-11.507 1.169-16 0z" fill="#616161"/>
   <rect ry=".97836" height="105.25" width="16" y="394.75" x="496" fill="#4caf50"/>
   <path d="m496 406.33v1.2075c4.8842 1.5317 10.465 1.5149 16 0v-1.2075c-5.3069 1.3145-10.398 1.3516-16 0z" fill="#388e3c"/>
   <path d="m496 486.33v1.21c4.6256 1.3856 10.231 1.6403 16 0.0228v-1.2328c-4.5389 1.3608-11.507 1.169-16 0z" fill="#388e3c"/>
   <rect ry="1.0411" height="112" width="16" y="388" x="512" fill="#f44336"/>
  </g>
  <path d="m512 400.32v1.2075c4.8841 1.5317 10.465 1.5149 16 0v-1.2075c-5.3068 1.3145-10.398 1.3516-16 0z" fill="#d32f2f"/>
  <path d="m512 485.32v1.21c4.6256 1.3856 10.231 1.6404 16 0.0229v-1.2328c-4.5388 1.3608-11.507 1.169-16 0z" fill="#d32f2f"/>
  <g>
   <rect ry=".97836" height="105.25" width="16" y="394.75" x="528" fill="#673ab7"/>
   <path d="m528 406.32v1.2075c4.8842 1.5317 10.465 1.5149 16 0v-1.2075c-5.3069 1.3145-10.398 1.3516-16 0z" fill="#512da8"/>
   <path d="m528 486.33v1.21c4.6256 1.3856 10.231 1.6403 16 0.0228v-1.2328c-4.5389 1.3608-11.507 1.169-16 0z" fill="#512da8"/>
   <rect ry=".88308" height="95" width="16" y="405" x="544" fill="#ffeb3b"/>
   <path d="m544 415.32v1.2075c4.8842 1.5317 10.465 1.5149 16 0v-1.2075c-5.3069 1.3145-10.398 1.3516-16 0z" fill="#fbc02d"/>
   <path d="m544 487.33v1.21c4.6256 1.3856 10.231 1.6403 16 0.0228v-1.2328c-4.5389 1.3608-11.507 1.169-16 0z" fill="#fbc02d"/>
   <rect ry=".97836" height="105.25" width="16" y="394.75" x="560" fill="#ff5722"/>
   <path d="m560 406.32v1.2075c4.8842 1.5317 10.465 1.5149 16 0v-1.2075c-5.3069 1.3145-10.398 1.3516-16 0z" fill="#e64a19"/>
   <path d="m560 486.33v1.21c4.6256 1.3856 10.231 1.6403 16 0.0228v-1.2328c-4.5389 1.3608-11.507 1.169-16 0z" fill="#e64a19"/>
   <rect ry=".97836" height="105.25" width="16" y="394.75" x="576" fill="#3f51b5"/>
   <path d="m576 406.32v1.2075c4.8842 1.5317 10.465 1.5149 16 0v-1.2075c-5.3069 1.3145-10.398 1.3516-16 0z" fill="#303f9f"/>
   <path d="m576 486.33v1.21c4.6256 1.3856 10.231 1.6403 16 0.0228v-1.2328c-4.5389 1.3608-11.507 1.169-16 0z" fill="#303f9f"/>
   <rect ry=".88308" height="95" width="16" y="405" x="592" fill="#e91e63"/>
   <path d="m592 415.32v1.2075c4.8842 1.5317 10.465 1.5149 16 0v-1.2075c-5.3069 1.3145-10.398 1.3516-16 0z" fill="#c2185b"/>
   <path d="m592 487.33v1.21c4.6256 1.3856 10.231 1.6403 16 0.0228v-1.2328c-4.5389 1.3608-11.507 1.169-16 0z" fill="#c2185b"/>
   <rect ry="1.0411" height="112" width="16" y="388" x="608" fill="#8bc34a"/>
   <path d="m608 400.32v1.2075c4.8841 1.5317 10.465 1.5149 16 0v-1.2075c-5.3068 1.3145-10.398 1.3516-16 0z" fill="#689f38"/>
   <path d="m608 485.32v1.21c4.6256 1.3856 10.231 1.6404 16 0.0229v-1.2328c-4.5388 1.3608-11.507 1.169-16 0z" fill="#689f38"/>
   <rect ry=".97836" height="105.25" width="16" y="394.75" x="624" fill="#2196f3"/>
   <path d="m624 406.32v1.2075c4.8842 1.5317 10.465 1.5149 16 0v-1.2075c-5.3069 1.3145-10.398 1.3516-16 0z" fill="#1976d2"/>
   <path d="m624 486.33v1.21c4.6256 1.3856 10.231 1.6403 16 0.0228v-1.2328c-4.5389 1.3608-11.507 1.169-16 0z" fill="#1976d2"/>
   <rect ry=".88308" height="95" width="16" y="405" x="640" fill="#9c27b0"/>
   <path d="m640 415.32v1.2075c4.8842 1.5317 10.465 1.5149 16 0v-1.2075c-5.3069 1.3145-10.398 1.3516-16 0z" fill="#7b1fa2"/>
   <path d="m640 487.33v1.21c4.6256 1.3856 10.231 1.6403 16 0.0228v-1.2328c-4.5389 1.3608-11.507 1.169-16 0z" fill="#7b1fa2"/>
   <rect ry=".88308" height="95" width="16" y="405" x="656" fill="#ff9800"/>
   <path d="m656 415.32v1.2075c4.8842 1.5317 10.465 1.5149 16 0v-1.2075c-5.3069 1.3145-10.398 1.3516-16 0z" fill="#f57c00"/>
   <path d="m656 487.32v1.21c4.6256 1.3856 10.231 1.6403 16 0.0228v-1.2328c-4.5389 1.3608-11.507 1.169-16 0z" fill="#f57c00"/>
   <rect ry=".97836" height="105.25" width="16" y="394.75" x="672" fill="#00bcd4"/>
   <path d="m672 406.32v1.2075c4.8842 1.5317 10.465 1.5149 16 0v-1.2075c-5.3069 1.3145-10.398 1.3516-16 0z" fill="#0097a7"/>
   <path d="m672 486.33v1.21c4.6256 1.3856 10.231 1.6403 16 0.0228v-1.2328c-4.5389 1.3608-11.507 1.169-16 0z" fill="#0097a7"/>
   <rect ry="1.0411" height="112" width="16" y="388" x="688" fill="#ffc107"/>
   <path d="m688 400.32v1.2075c4.8841 1.5317 10.465 1.5149 16 0v-1.2075c-5.3068 1.3145-10.398 1.3516-16 0z" fill="#ffa000"/>
   <path d="m688 485.32v1.21c4.6256 1.3856 10.231 1.6404 16 0.0229v-1.2328c-4.5388 1.3608-11.507 1.169-16 0z" fill="#ffa000"/>
   <rect ry="1.0411" height="112" width="16" y="388" x="704" fill="#009688"/>
   <path d="m704 400.32v1.2075c4.8841 1.5317 10.465 1.5149 16 0v-1.2075c-5.3068 1.3145-10.398 1.3516-16 0z" fill="#00796b"/>
   <path d="m704 485.32v1.21c4.6256 1.3856 10.231 1.6404 16 0.0229v-1.2328c-4.5388 1.3608-11.507 1.169-16 0z" fill="#00796b"/>
   <rect ry=".97836" height="105.25" width="16" y="394.75" x="720" fill="#03a9f4"/>
   <path d="m720 406.32v1.2075c4.8842 1.5317 10.465 1.5149 16 0v-1.2075c-5.3069 1.3145-10.398 1.3516-16 0z" fill="#0288d1"/>
   <path d="m720 486.33v1.21c4.6256 1.3856 10.231 1.6403 16 0.0228v-1.2328c-4.5389 1.3608-11.507 1.169-16 0z" fill="#0288d1"/>
   <rect ry=".88308" height="95" width="16" y="405" x="736" fill="#9e9e9e"/>
   <path d="m736 415.32v1.2075c4.8842 1.5317 10.465 1.5149 16 0v-1.2075c-5.3069 1.3145-10.398 1.3516-16 0z" fill="#616161"/>
   <path d="m736 487.33v1.21c4.6256 1.3856 10.231 1.6403 16 0.0228v-1.2328c-4.5389 1.3608-11.507 1.169-16 0z" fill="#616161"/>
   <rect ry=".97836" height="105.25" width="16" y="394.75" x="752" fill="#4caf50"/>
   <path d="m752 406.33v1.2075c4.8842 1.5317 10.465 1.5149 16 0v-1.2075c-5.3069 1.3145-10.398 1.3516-16 0z" fill="#388e3c"/>
   <path d="m752 486.33v1.21c4.6256 1.3856 10.231 1.6403 16 0.0228v-1.2328c-4.5389 1.3608-11.507 1.169-16 0z" fill="#388e3c"/>
   <rect ry="1.0411" height="112" width="16" y="388" x="768" fill="#f44336"/>
  </g>
  <path d="m768 400.32v1.2075c4.8841 1.5317 10.465 1.5149 16 0v-1.2075c-5.3068 1.3145-10.398 1.3516-16 0z" fill="#d32f2f"/>
  <path d="m768 485.32v1.21c4.6256 1.3856 10.231 1.6404 16 0.0229v-1.2328c-4.5388 1.3608-11.507 1.169-16 0z" fill="#d32f2f"/>
  <g>
   <rect ry=".97836" height="105.25" width="16" y="394.75" x="784" fill="#673ab7"/>
   <path d="m784 406.32v1.2075c4.8842 1.5317 10.465 1.5149 16 0v-1.2075c-5.3069 1.3145-10.398 1.3516-16 0z" fill="#512da8"/>
   <path d="m784 486.33v1.21c4.6256 1.3856 10.231 1.6403 16 0.0228v-1.2328c-4.5389 1.3608-11.507 1.169-16 0z" fill="#512da8"/>
   <rect ry=".88308" height="95" width="16" y="405" x="800" fill="#ffeb3b"/>
   <path d="m800 415.32v1.2075c4.8842 1.5317 10.465 1.5149 16 0v-1.2075c-5.3069 1.3145-10.398 1.3516-16 0z" fill="#fbc02d"/>
   <path d="m800 487.33v1.21c4.6256 1.3856 10.231 1.6403 16 0.0228v-1.2328c-4.5389 1.3608-11.507 1.169-16 0z" fill="#fbc02d"/>
   <rect ry=".97836" height="105.25" width="16" y="394.75" x="816" fill="#ff5722"/>
   <path d="m816 406.32v1.2075c4.8842 1.5317 10.465 1.5149 16 0v-1.2075c-5.3069 1.3145-10.398 1.3516-16 0z" fill="#e64a19"/>
   <path d="m816 486.33v1.21c4.6256 1.3856 10.231 1.6403 16 0.0228v-1.2328c-4.5389 1.3608-11.507 1.169-16 0z" fill="#e64a19"/>
   <rect ry=".97836" height="105.25" width="16" y="394.75" x="832" fill="#3f51b5"/>
   <path d="m832 406.32v1.2075c4.8842 1.5317 10.465 1.5149 16 0v-1.2075c-5.3069 1.3145-10.398 1.3516-16 0z" fill="#303f9f"/>
   <path d="m832 486.33v1.21c4.6256 1.3856 10.231 1.6403 16 0.0228v-1.2328c-4.5389 1.3608-11.507 1.169-16 0z" fill="#303f9f"/>
   <rect ry=".88308" height="95" width="16" y="405" x="848" fill="#e91e63"/>
   <path d="m848 415.32v1.2075c4.8842 1.5317 10.465 1.5149 16 0v-1.2075c-5.3069 1.3145-10.398 1.3516-16 0z" fill="#c2185b"/>
   <path d="m848 487.33v1.21c4.6256 1.3856 10.231 1.6403 16 0.0228v-1.2328c-4.5389 1.3608-11.507 1.169-16 0z" fill="#c2185b"/>
   <rect ry="1.0411" height="112" width="16" y="388" x="864" fill="#8bc34a"/>
   <path d="m864 400.32v1.2075c4.8841 1.5317 10.465 1.5149 16 0v-1.2075c-5.3068 1.3145-10.398 1.3516-16 0z" fill="#689f38"/>
   <path d="m864 485.32v1.21c4.6256 1.3856 10.231 1.6404 16 0.0229v-1.2328c-4.5388 1.3608-11.507 1.169-16 0z" fill="#689f38"/>
   <rect ry=".97836" height="105.25" width="16" y="394.75" x="880" fill="#2196f3"/>
   <path d="m880 406.32v1.2075c4.8842 1.5317 10.465 1.5149 16 0v-1.2075c-5.3069 1.3145-10.398 1.3516-16 0z" fill="#1976d2"/>
   <path d="m880 486.33v1.21c4.6256 1.3856 10.231 1.6403 16 0.0228v-1.2328c-4.5389 1.3608-11.507 1.169-16 0z" fill="#1976d2"/>
   <rect ry=".88308" height="95" width="16" y="405" x="896" fill="#9c27b0"/>
   <path d="m896 415.32v1.2075c4.8842 1.5317 10.465 1.5149 16 0v-1.2075c-5.3069 1.3145-10.398 1.3516-16 0z" fill="#7b1fa2"/>
   <path d="m896 487.33v1.21c4.6256 1.3856 10.231 1.6403 16 0.0228v-1.2328c-4.5389 1.3608-11.507 1.169-16 0z" fill="#7b1fa2"/>
   <rect ry=".88308" height="95" width="16" y="405" x="912" fill="#ff9800"/>
   <path d="m912 415.32v1.2075c4.8842 1.5317 10.465 1.5149 16 0v-1.2075c-5.3069 1.3145-10.398 1.3516-16 0z" fill="#f57c00"/>
   <path d="m912 487.32v1.21c4.6256 1.3856 10.231 1.6403 16 0.0228v-1.2328c-4.5389 1.3608-11.507 1.169-16 0z" fill="#f57c00"/>
   <rect ry=".97836" height="105.25" width="16" y="394.75" x="928" fill="#00bcd4"/>
   <path d="m928 406.32v1.2075c4.8842 1.5317 10.465 1.5149 16 0v-1.2075c-5.3069 1.3145-10.398 1.3516-16 0z" fill="#0097a7"/>
   <path d="m928 486.33v1.21c4.6256 1.3856 10.231 1.6403 16 0.0228v-1.2328c-4.5389 1.3608-11.507 1.169-16 0z" fill="#0097a7"/>
   <rect ry="1.0411" height="112" width="16" y="388" x="944" fill="#ffc107"/>
   <path d="m944 400.32v1.2075c4.8841 1.5317 10.465 1.5149 16 0v-1.2075c-5.3068 1.3145-10.398 1.3516-16 0z" fill="#ffa000"/>
   <path d="m944 485.32v1.21c4.6256 1.3856 10.231 1.6404 16 0.0229v-1.2328c-4.5388 1.3608-11.507 1.169-16 0z" fill="#ffa000"/>
   <rect ry="1.0411" height="112" width="16" y="388" x="960" fill="#009688"/>
   <path d="m960 400.32v1.2075c4.8841 1.5317 10.465 1.5149 16 0v-1.2075c-5.3068 1.3145-10.398 1.3516-16 0z" fill="#00796b"/>
   <path d="m960 485.32v1.21c4.6256 1.3856 10.231 1.6404 16 0.0229v-1.2328c-4.5388 1.3608-11.507 1.169-16 0z" fill="#00796b"/>
   <rect ry=".97836" height="105.25" width="16" y="394.75" x="976" fill="#03a9f4"/>
   <path d="m976 406.32v1.2075c4.8842 1.5317 10.465 1.5149 16 0v-1.2075c-5.3069 1.3145-10.398 1.3516-16 0z" fill="#0288d1"/>
   <path d="m976 486.33v1.21c4.6256 1.3856 10.231 1.6403 16 0.0228v-1.2328c-4.5389 1.3608-11.507 1.169-16 0z" fill="#0288d1"/>
   <rect ry=".88308" height="95" width="16" y="405" x="992" fill="#9e9e9e"/>
   <path d="m992 415.32v1.2075c4.8842 1.5317 10.465 1.5149 16 0v-1.2075c-5.3068 1.3145-10.398 1.3516-16 0z" fill="#616161"/>
   <path d="m992 487.33v1.21c4.6256 1.3856 10.231 1.6403 16 0.0228v-1.2328c-4.5388 1.3608-11.507 1.169-16 0z" fill="#616161"/>
   <rect ry=".97836" height="105.25" width="16" y="394.75" x="1008" fill="#4caf50"/>
   <path d="m1008 406.33v1.2075c4.8842 1.5317 10.465 1.5149 16 0v-1.2075c-5.3068 1.3145-10.398 1.3516-16 0z" fill="#388e3c"/>
   <path d="m1008 486.33v1.21c4.6257 1.3856 10.231 1.6403 16 0.0228v-1.2328c-4.5388 1.3608-11.507 1.169-16 0z" fill="#388e3c"/>
  </g>
 </g>
</svg>
